# xmcd CD database file
#
# Track frame offsets:
#	150
#	16626
#	34227
#	48544
#	53361
#
# Disc length: 995 seconds
#
# Revision: 0
# Processed by: cddbd v1.5.2PL0 Copyright (c) Steve Scherf et al.
# Submitted via: CDex 1.51
#
DISCID=3003e105
DTITLE=Sankt Otten - Tiefgang
DYEAR=2008
DGENRE=Jazz
TTITLE0=Tiefgang (Kurzfassung)
TTITLE1=Morgen Ist
TTITLE2=Blumen Für Den Dandy
TTITLE3=Heimkino
TTITLE4=Eine Neue Welt
EXTD=YEAR: 2008
EXTT0=
EXTT1=
EXTT2=
EXTT3=
EXTT4=
PLAYORDER=
